<?xml version="1.0" encoding="iso-8859-1"?>
<!-- Generator: Adobe Illustrator 19.0.0, SVG Export Plug-In . SVG Version: 6.00 Build 0)  -->
<svg version="1.1" id="Capa_1" xmlns="http://www.w3.org/2000/svg" xmlns:xlink="http://www.w3.org/1999/xlink" x="0px" y="0px"
	 viewBox="0 0 512 512" style="enable-background:new 0 0 512 512;" xml:space="preserve">
<circle style="fill:#7AE5FE;" cx="256" cy="256" r="256"/>
<path style="fill:#00BED2;" d="M385.667,280.056l-7.259,12.019L331,244.667l-10.682,15.03l-29.564-29.564l-2.894,6.811L136.917,86
	l-48.426,20l62.585,62.584l23.543,137.32L404.357,464.65c32.218-22.949,58.883-53.181,77.62-88.284L385.667,280.056z"/>
<polygon style="fill:#546E7A;" points="157.711,279.419 120.732,106 88.491,106 88.491,86 136.917,86 177.271,275.248 "/>
<path style="fill:#FE7043;" d="M271.083,285.833h-30.167c-13.761,0-24.917-11.156-24.917-24.917v-15.5
	c0-13.761,11.156-24.917,24.917-24.917h30.167c13.761,0,24.917,11.156,24.917,24.917v15.5
	C296,274.678,284.844,285.833,271.083,285.833z"/>
<path style="fill:#FE5722;" d="M271.083,220.5h-15.512v65.333h15.512c13.761,0,24.917-11.156,24.917-24.917v-15.5
	C296,231.656,284.844,220.5,271.083,220.5z"/>
<path style="fill:#39B54A;" d="M4.129,302C25.8,421.43,130.32,512,256,512s230.2-90.57,251.871-210H4.129z"/>
<path style="fill:#009245;" d="M255.571,302v209.995c0.143,0,0.285,0.005,0.429,0.005c125.68,0,230.2-90.57,251.871-210H255.571z"/>
<circle style="fill:#546E7A;" cx="171.33" cy="332" r="27"/>
<circle style="fill:#455A64;" cx="340.67" cy="332" r="27"/>
<rect x="181" y="244.67" style="fill:#DC2C00;" width="150" height="65.33"/>
<rect x="255.57" y="244.67" style="fill:#BE360C;" width="75.43" height="65.33"/>
<polygon style="fill:#FE7043;" points="385.667,333 126.333,333 126.333,265.5 385.667,280.056 "/>
<polygon style="fill:#FE5722;" points="385.667,280.056 255.571,272.754 255.571,333 385.667,333 "/>
<g>
</g>
<g>
</g>
<g>
</g>
<g>
</g>
<g>
</g>
<g>
</g>
<g>
</g>
<g>
</g>
<g>
</g>
<g>
</g>
<g>
</g>
<g>
</g>
<g>
</g>
<g>
</g>
<g>
</g>
</svg>
